<svg xmlns:dc="http://purl.org/dc/elements/1.1/" xmlns:cc="http://creativecommons.org/ns#" xmlns:rdf="http://www.w3.org/1999/02/22-rdf-syntax-ns#" xmlns:svg="http://www.w3.org/2000/svg" xmlns="http://www.w3.org/2000/svg" xmlns:xlink="http://www.w3.org/1999/xlink" id="svg360726" viewBox="0 0 1024 768" height="768px" width="1024px" version="1.1">
    <metadata id="metadata360732">
      <rdf:rdf>
        <cc:work rdf:about="">
          <dc:format>image/svg+xml</dc:format>
          <dc:type rdf:resource="http://purl.org/dc/dcmitype/StillImage"></dc:type>
        </cc:work>
      </rdf:rdf>
    </metadata>
    <defs id="defs360730"></defs>
    <linearGradient spreadMethod="pad" y2="30%" x2="-10%" y1="120%" x1="30%" id="3d_gradient2-logo-31874763-4354-408b-a092-f20c395ea4d7">
      <stop id="stop360707" stop-opacity="1" stop-color="#ffffff" offset="0%"></stop>
      <stop id="stop360709" stop-opacity="1" stop-color="#000000" offset="100%"></stop>
    </linearGradient>
    <linearGradient gradientTransform="rotate(-30)" spreadMethod="pad" y2="30%" x2="-10%" y1="120%" x1="30%" id="3d_gradient3-logo-31874763-4354-408b-a092-f20c395ea4d7">
      <stop id="stop360712" stop-opacity="1" stop-color="#ffffff" offset="0%"></stop>
      <stop id="stop360714" stop-opacity="1" stop-color="#cccccc" offset="50%"></stop>
      <stop id="stop360716" stop-opacity="1" stop-color="#000000" offset="100%"></stop>
    </linearGradient>
    <g id="logo-group">
      <image xlink:href="" id="container" x="272" y="144" width="480" height="480" style="display: none;" transform="translate(0 0)"></image>
      <g id="logo-center" transform="translate(95.54249000000004 0)">
        <image xlink:href="" id="icon_container" x="0" y="0" style="display: none;"></image>
        <g id="slogan" style="font-style:normal;font-weight:700;font-size:32px;line-height:1;font-family:'Brandmark1 Bold Color';font-variant-ligatures:none;text-align:center;text-anchor:middle" transform="translate(0 0)"></g>
        <g id="title" style="font-style:normal;font-weight:700;font-size:72px;line-height:1;font-family:'Brandmark1 Bold Color';font-variant-ligatures:normal;text-align:center;text-anchor:middle" transform="translate(0 0)">
          <g id="path360735" aria-label="C" transform="translate(0 331.048) translate(50 -4.287999999999997) scale(2) translate(-328.94337 54.288)"> <path class="c1" d="M91.27637,126.36865c-3.40576-1.44043-6.46631-3.50684-9.09424-6.13477 c-2.62842-2.62793-4.6875-5.68848-6.13477-9.09473c-1.49072-3.52783-2.25391-7.27979-2.25391-11.13916 s0.75586-7.61084,2.25391-11.13916c1.43994-3.40625,3.50635-6.46631,6.13477-9.09473 c2.62793-2.62793,5.68848-4.6875,9.09424-6.13477c3.52881-1.49756,7.27979-2.25391,11.13916-2.25391 c9.5625,0,18.45508,4.74561,23.79102,12.70215l-9.38965,6.29346c-3.22559-4.81738-8.61133-7.69043-14.40137-7.69043 c-4.62207,0-8.97168,1.80029-12.24805,5.06934S85.09814,95.37744,85.09814,100c0,4.62305,1.80029,8.97217,5.06934,12.24854 c3.26855,3.26953,7.61816,5.06836,12.24805,5.06836c5.76074,0,11.13281-2.85742,14.36523-7.63867l9.36816,6.32813 c-5.33594,7.90039-14.20703,12.61621-23.7334,12.61621C98.55615,128.62256,94.80518,127.8667,91.27637,126.36865z" transform="translate(255.14992 -125.66542)" stroke-width="0" stroke-linejoin="miter" stroke-miterlimit="2" fill="#546762" stroke="#546762"></path> </g>
          <g id="path360737" aria-label="A" transform="translate(0 331.048) translate(147.43175999999994 -2.9920000000000044) scale(2) translate(-377.65925 53.64)"> <polygon class="c1" points="104.82788,71.91748 95.08569,71.91748 73.80786,128.08252 85.77515,128.08252 99.93921,89.14844 114.22534,128.08252 126.19214,128.08252 " transform="translate(303.85139 -125.55748)" stroke-width="0" stroke-linejoin="miter" stroke-miterlimit="2" fill="#546762" stroke="#546762"></polygon> <polygon class="c3" points="100.03819,128.08252 91.09854,114.24284 108.90146,114.24284 " transform="translate(303.85139 -125.55748)" stroke-width="0" stroke-linejoin="miter" stroke-miterlimit="2" fill="#d69673" stroke="#d69673"></polygon> </g>
          <g id="path360739" aria-label="N" transform="translate(0 331.048) translate(256.1202599999999 -2.9920000000000044) scale(2) translate(-432.0035 53.64)"> <path class="c1" d="M88.08252,93.00806v35.07422H76.77783V71.91772h10.01563l25.12305,35.39795V71.91772h11.30566v56.16455 h-10.23242L88.08252,93.00806z" transform="translate(355.22567 -125.55772)" stroke-width="0" stroke-linejoin="miter" stroke-miterlimit="2" fill="#546762" stroke="#546762"></path> </g>
          <g id="path360741" aria-label="N" transform="translate(0 331.048) translate(364.40149999999994 -2.9920000000000044) scale(2) translate(-486.14412 53.64)"> <path class="c1" d="M88.08252,93.00806v35.07422H76.77783V71.91772h10.01563l25.12305,35.39795V71.91772h11.30566v56.16455 h-10.23242L88.08252,93.00806z" transform="translate(409.36629 -125.55772)" stroke-width="0" stroke-linejoin="miter" stroke-miterlimit="2" fill="#546762" stroke="#546762"></path> </g>
          <g id="path360743" aria-label="A" transform="translate(0 331.048) translate(461.30676000000005 -2.9920000000000044) scale(2) translate(-534.59675 53.64)"> <polygon class="c1" points="104.82788,71.91748 95.08569,71.91748 73.80786,128.08252 85.77515,128.08252 99.93921,89.14844 114.22534,128.08252 126.19214,128.08252 " transform="translate(460.78889 -125.55748)" stroke-width="0" stroke-linejoin="miter" stroke-miterlimit="2" fill="#546762" stroke="#546762"></polygon> <polygon class="c3" points="100.03819,128.08252 91.09854,114.24284 108.90146,114.24284 " transform="translate(460.78889 -125.55748)" stroke-width="0" stroke-linejoin="miter" stroke-miterlimit="2" fill="#d69673" stroke="#d69673"></polygon> </g>
          <g id="path360745" aria-label="G" transform="translate(0 331.048) translate(558.4527599999999 -3.8560000000000088) scale(2) translate(-583.16975 54.072)"> <path class="c1" d="M88.90356,126.25342c-3.39111-1.43262-6.43701-3.49219-9.05811-6.10547 c-2.60693-2.61426-4.65869-5.66016-6.09912-9.05859c-1.4834-3.51416-2.23926-7.24414-2.23926-11.08936 s0.75586-7.5752,2.23926-11.09619c1.43311-3.3916,3.49219-6.4375,6.10645-9.05811c2.61377-2.61426,5.65967-4.66602,9.05811-6.10645 c3.51465-1.4834,7.24414-2.23193,11.08887-2.23193c4.55859,0,9.10156,1.10156,13.12012,3.19678 c3.8877,2.02344,7.31543,4.96143,9.90039,8.51123l-9.12988,6.66797c-1.5625-2.146-3.63672-3.92432-5.98438-5.14111 c-2.45508-1.2749-5.11914-1.92285-7.91309-1.92285c-4.59375,0-8.90723,1.78564-12.15479,5.0332s-5.0332,7.56055-5.0332,12.15479 c0,4.59375,1.78564,8.90723,5.0332,12.1543c3.24756,3.24805,7.56104,5.0332,12.15479,5.0332s8.90723-1.78516,12.1543-5.0332 c1.86523-1.86523,3.24805-4.08252,4.08984-6.50195h-16.2373V94.35498h28.49316v5.65234c0,3.84521-0.75586,7.5752-2.23926,11.0957 c-1.43359,3.3916-3.49219,6.4375-6.10645,9.05859c-2.61328,2.62109-5.65918,4.66602-9.05859,6.10645 c-3.51367,1.46875-7.24316,2.22461-11.08887,2.22461C96.15503,128.49268,92.42554,127.73682,88.90356,126.25342z" transform="translate(511.66268 -125.57932)" stroke-width="0" stroke-linejoin="miter" stroke-miterlimit="2" fill="#546762" stroke="#546762"></path> </g>
          <g id="path360747" aria-label="O" transform="translate(0 331.048) translate(669.2990199999999 -3.7120000000000033) scale(2) translate(-638.59288 54)"> <path class="c1" d="M88.93994,126.17456c-3.38477-1.43311-6.42285-3.47803-9.02979-6.08447 c-2.60645-2.60693-4.65137-5.64551-6.08447-9.02979c-1.4834-3.50684-2.23242-7.22949-2.23242-11.06006 s0.74902-7.55371,2.23242-11.06006c1.43311-3.38428,3.47803-6.42334,6.08447-9.02979 c2.60693-2.60645,5.64502-4.65137,9.02979-6.08447c3.50684-1.4834,7.22949-2.23242,11.05957-2.23242 c3.83105,0,7.55371,0.74902,11.06055,2.23242c3.38477,1.43311,6.42285,3.47803,9.0293,6.08447 c2.60742,2.60645,4.65234,5.64551,6.08496,9.02979c1.4834,3.50635,2.23242,7.22949,2.23242,11.06006 s-0.74902,7.55322-2.23242,11.06006c-1.43262,3.38428-3.47754,6.42285-6.08496,9.02979 c-2.60645,2.60645-5.64453,4.65137-9.0293,6.08447c-3.50684,1.4834-7.22949,2.23193-11.06055,2.23193 C96.16943,128.40649,92.44678,127.65796,88.93994,126.17456z M87.90283,87.9104c-3.2334,3.23291-5.01172,7.52441-5.01172,12.09717 c0,4.57227,1.77832,8.86377,5.01172,12.09668c3.2334,3.2334,7.52441,5.01172,12.09668,5.01172 c4.57324,0,8.86426-1.77832,12.09766-5.01172c3.23242-3.23291,5.01172-7.52441,5.01172-12.09668 c0-4.57275-1.7793-8.86426-5.01172-12.09717c-3.2334-3.23291-7.53223-5.01172-12.09766-5.01172 C95.43506,82.89868,91.13623,84.67749,87.90283,87.9104z" transform="translate(566.99962 -125.5935)" stroke-width="0" stroke-linejoin="miter" stroke-miterlimit="2" fill="#546762" stroke="#546762"></path> </g>
          <g id="path360748" aria-label="V" transform="translate(0 331.048) translate(669.2990199999999 -3.7120000000000033) scale(2) translate(-638.59288 54)"> <path class="c1" d="M88.93994,126.17456c-3.38477-1.43311-6.42285-3.47803-9.02979-6.08447 c-2.60645-2.60693-4.65137-5.64551-6.08447-9.02979c-1.4834-3.50684-2.23242-7.22949-2.23242-11.06006 s0.74902-7.55371,2.23242-11.06006c1.43311-3.38428,3.47803-6.42334,6.08447-9.02979 c2.60693-2.60645,5.64502-4.65137,9.02979-6.08447c3.50684-1.4834,7.22949-2.23242,11.05957-2.23242 c3.83105,0,7.55371,0.74902,11.06055,2.23242c3.38477,1.43311,6.42285,3.47803,9.0293,6.08447 c2.60742,2.60645,4.65234,5.64551,6.08496,9.02979c1.4834,3.50635,2.23242,7.22949,2.23242,11.06006 s-0.74902,7.55322-2.23242,11.06006c-1.43262,3.38428-3.47754,6.42285-6.08496,9.02979 c-2.60645,2.60645-5.64453,4.65137-9.0293,6.08447c-3.50684,1.4834-7.22949,2.23193-11.06055,2.23193 C96.16943,128.40649,92.44678,127.65796,88.93994,126.17456z M87.90283,87.9104c-3.2334,3.23291-5.01172,7.52441-5.01172,12.09717 c0,4.57227,1.77832,8.86377,5.01172,12.09668c3.2334,3.2334,7.52441,5.01172,12.09668,5.01172 c4.57324,0,8.86426-1.77832,12.09766-5.01172c3.23242-3.23291,5.01172-7.52441,5.01172-12.09668 c0-4.57275-1.7793-8.86426-5.01172-12.09717c-3.2334-3.23291-7.53223-5.01172-12.09766-5.01172 C95.43506,82.89868,91.13623,84.67749,87.90283,87.9104z" transform="translate(566.99962 -125.5935)" stroke-width="0" stroke-linejoin="miter" stroke-miterlimit="2" fill="#546762" stroke="#546762"></path> </g>
        </g>
        <image xlink:href="" id="icon" x="0" y="0" style="display: none;"></image>
      </g>
    </g>
  </svg>